Patient4_TMGait_0pt8_01_left_25_EMG.mot
version=1
nRows=23
nColumns=33
inDegrees=no
endheader
time	1LAddLong	2LGlutMax	3LGlutMed	4LIliopsoas	5LSemiMemb	6LBicFemLong	7LRecFem	8LVastMed	9LVastLat	10LGasMed	11LTibAnt	12lTibPost	13LPeroneusLong	14LSol	15LExtDigLong	16LFlexDigLong	17RAddLong	18RGlutMax	19RGlutMed	20RIliopsoas	21RSemiMemb	22RBicFemLong	23RRecFem	24RVastMed	25RVastLat	26RGasMed	27RTibAnt	28RTibPost	29RPeroneusLong	30RSol	31RExtDigLong	32RFlexDigLong
28.14	0.015106	0.15167	-0.19501	0.014496	0.004578	0.068054	-0.43488	-0.001984	-0.043793	0.8046	0.003815	0	0.048828	0.054169	0.047607	-0.27741	-0.044098	0.009918	1.0135	-0.047455	0.22263	0.31693	-0.2124	0.019684	0.03479	-0.015564	0.20203	0.00885	-0.48813	0.010223	-0.004578	0.001221
28.141	0.010834	0.14877	-0.21774	0.015564	0.000305	0.016022	-0.42206	0.003052	-0.028534	0.55084	0.019989	-0.012665	0.081329	0.021973	0.057983	-0.35629	0.023346	0.074158	0.30579	-0.068665	0.23972	0.12772	-0.18463	-0.12817	-0.44098	-0.007782	0.046082	-0.000153	-0.42313	-0.070343	-0.003967	0.004425
28.142	0.012512	0.17578	-0.20477	0.001984	0.002441	-0.017853	-0.39597	0.001373	-0.040131	0.10971	0.003357	-0.019073	0.10696	0.001221	0.048523	0.17944	0.11292	0.07782	0.012665	-0.0383	0.33783	-0.000763	-0.3598	-0.29846	-0.56732	-0.007324	0.027618	0.000305	0.22324	-0.10742	-0.002747	0.006104
28.143	0.010071	0.23148	-0.22201	0.005951	0.028687	0.031281	-0.39322	0.001831	-0.055542	0.21149	-0.007935	-0.008087	0.081635	-0.15411	0.015869	0.16037	0.21408	0.070801	0.17838	0.10452	0.24475	-0.061798	-0.41565	0.17273	-0.53619	-0.015717	0.19012	-0.001831	0.54443	-0.073242	-0.002594	0.002899
28.144	0.002441	0.21744	-0.20187	-0.001831	0.014038	0.063019	-0.40329	0.003662	-0.051727	-0.43991	-0.000458	-0.015564	0.050354	-0.11398	-0.016632	0.2034	0.29755	0.036011	0.14771	0.29419	0.21164	-0.1294	-0.27863	0.12985	-0.49484	-0.00946	0.49759	0.000458	0.30167	-0.02655	-0.004883	0.001831
28.145	0.009308	0.22064	-0.18677	-0.00061	-0.007324	0.081024	-0.37064	0.003815	-0.052948	-1.1218	0.009766	-0.016327	0.010376	-0.11581	-0.026245	-0.57846	0.31097	-0.03891	0.15793	0.271	0.016174	-0.11078	-0.11063	-0.072327	-0.42633	-0.023346	0.74814	-0.001373	0.14557	-0.037079	-0.002594	-0.003052
28.146	0.010071	0.23239	-0.1886	-0.005341	0.020599	0.045166	-0.36804	0.000916	-0.04776	-0.67474	0.006104	0.003052	-0.036316	-0.091553	-0.010986	0.023499	0.16281	-0.089569	0.12085	0.11963	-0.41748	0.10925	-0.075531	-0.28854	-0.19333	-0.017395	0.88425	-0.000916	-0.34088	-0.097351	-0.002441	0.001221
28.147	0.010376	0.19104	-0.17883	0.014343	0.022125	-0.005035	-0.3598	-0.000305	-0.050964	-0.095215	0.011902	0.023193	-0.09964	-0.003204	-0.024719	0.4715	-0.10147	-0.093994	0.19302	0.067444	-0.41824	0.43503	-0.060272	-0.36743	0.18249	-0.016937	0.88043	-0.002136	0.16403	-0.12161	0.000763	0.003815
28.148	0.010986	0.18265	-0.19318	0.00473	0.005341	-0.050964	-0.33447	0.002594	-0.06485	-0.55847	0.011444	0.035248	-0.14206	0.1944	-0.042267	0.31738	-0.22079	-0.093842	0.10101	0.050659	0.18433	0.59158	-0.13657	-0.39108	0.32761	-0.013428	0.21301	-0.005188	0.20004	-0.10834	-0.007935	0.000305
28.149	0.012665	0.16693	-0.17838	0.000153	-0.002136	-0.10635	-0.34546	0.001373	-0.061951	-1.4769	0.007324	0.016479	-0.11932	0.25345	-0.046082	-0.19134	-0.21912	-0.21744	0.13229	-0.014343	0.56488	0.46967	-0.19196	-0.49972	0.35675	-0.013275	-0.83481	-0.002899	-0.33463	-0.11551	-0.001068	0.005035
28.15	0.010681	0.14603	-0.15579	-0.012665	0.023346	-0.16037	-0.32822	-0.024719	-0.050659	-1.1856	0.012512	0.001984	0.063934	0.45166	-0.010986	0.25589	-0.1294	-0.19775	0.072174	-0.082855	0.56061	0.29785	-0.32044	-0.48218	0.36591	-0.008392	-1.4261	-0.000763	-0.39963	-0.14465	-0.003357	-0.010986
28.151	0.012054	0.15564	-0.12558	0.001221	0.080719	-0.13351	-0.32928	-0.012665	-0.047607	-0.44006	0.010529	0.00946	0.21072	0.42587	0.018463	-0.43839	-0.036011	-0.20371	0.19608	-0.064545	0.5574	0.17349	-0.42297	-0.38849	0.30792	-0.002289	-0.77667	-0.003815	1.2236	-0.25421	-0.00351	-0.002136
28.152	0.012207	0.13229	-0.10986	-0.014191	0.039368	-0.10712	-0.29617	0.007629	-0.065002	-0.077057	0.000916	-0.016174	0.12329	0.37491	0.011292	-1.0434	-0.021973	-0.12711	0.34042	-0.077209	0.91446	-0.026245	-0.53711	0.090637	0.22659	0.001221	-0.271	-0.008087	1.4189	-0.23117	-0.008087	-0.006409
28.153	0.010986	0.12222	-0.092621	-0.006866	0.046692	-0.040436	-0.28686	-0.000763	-0.06424	0.44189	0.001526	-0.010223	-0.009155	0.057831	-0.021362	0.60806	-0.045166	-0.037079	0.55496	-0.11765	0.75745	-0.064392	-0.41	0.25848	0.065765	0.001221	-0.062408	-0.003204	0.44723	-0.20035	-0.002441	-0.005493
28.154	0.004578	0.062714	-0.10117	0.019684	0.024567	0.037231	-0.27145	0.006866	-0.055847	0.71716	0.001526	0.02182	0.011597	-0.32227	-0.002899	0.87158	-0.081024	0.096588	0.36743	-0.076599	0.37201	-0.17548	-0.25818	0.28061	0.027618	-0.007324	-0.033722	-0.008545	-0.51956	-0.16815	-0.003815	0.005493
28.155	0.009766	0.085754	-0.093231	0.018005	0.011902	0.032501	-0.24094	-0.000458	-0.043182	0.6247	-0.016785	0.033875	0.080872	-0.20569	0.006104	-0.52277	-0.086365	0.14984	0.15686	-0.012207	0.36957	-0.18402	-0.25528	0.30319	-0.006104	-0.001221	-0.16785	-0.00351	-0.98267	-0.15243	0.00061	0.003357
28.156	0.00885	0.043335	-0.089111	0.02121	0.003204	0.016022	-0.24902	0.003967	-0.045776	0.57388	-0.015564	0.038147	0.15213	0.032806	0.016327	-0.19455	-0.046844	0.2536	0.0177	-0.053711	0.39124	-0.14481	-0.11276	0.30655	-0.16953	-0.007477	-0.16632	-0.003815	-0.14755	-0.22385	0.003052	0.002594
28.157	0.01236	0.006409	-0.076599	0.014801	-0.009308	0.007629	-0.23727	0.001068	-0.030212	0.53131	0	0.12878	0.11643	-0.32303	-0.026093	0.070343	-0.028076	0.27664	-0.22522	-0.17487	0.36224	-0.10559	-0.29175	0.30701	-0.19821	-0.007782	-0.011902	-0.009003	0.63904	-0.070343	-0.001221	0.002594
28.158	0.00885	0.058899	-0.063782	0.007629	-0.000763	0.019379	-0.22339	0.000916	-0.023346	0.007019	0.007172	0.033264	0.056763	-0.52353	-0.049286	0.030823	-0.022736	0.23377	-0.13321	-0.20798	0.34058	-0.14328	-0.49866	0.30472	-0.16785	-0.010223	0.23056	-0.010681	0.25986	0.14099	-0.00061	-0.000916
28.159	0.006714	0.075989	-0.052338	0.009766	0.019684	-0.004883	-0.22903	0.000763	-0.025787	-0.14877	0.005493	-0.17319	0.007324	-0.10483	-0.024261	0.2948	-0.01236	0.21805	0.046997	-0.013275	0.33356	-0.2562	-0.55328	0.2713	-0.013428	-0.01236	0.22614	-0.013733	-0.077209	0.23972	-0.003967	0.003662
28.16	0.015411	0.064392	-0.036163	-0.002136	0.018921	-0.055237	-0.18906	0.005188	-0.035095	-0.39688	0.00351	0.21683	-0.014496	0.44586	0.003967	0.037842	-0.000763	0.054321	0.15533	0.10864	0.33798	-0.25574	-0.57968	-0.13855	-0.004425	-0.009766	0.53467	-0.012054	0.16296	0.23209	-0.00412	0.007629
28.161	0.003967	0.020142	-0.009918	-0.004578	0.024567	-0.032654	-0.1741	0.005646	-0.040588	-0.53635	0.015564	0.21881	-0.02121	0.30456	0.020447	-0.050659	0.027008	0.03891	-0.025787	0.18356	0.34027	-0.14786	-0.43793	-0.25986	-0.13901	-0.012512	0.36072	-0.010529	0.089417	0.21652	-0.002899	-0.001068
28.162	0.015411	-0.007324	-0.00061	0.008545	0.007935	0.011597	-0.16647	0.002594	-0.032959	-0.37705	0.017242	-0.19455	-0.015106	-0.45349	0.013275	-0.11688	0.08194	0.004883	-0.18997	0.1889	0.27832	0.025482	-0.30075	-0.11108	-0.26077	-0.012817	0.070038	-0.012207	-0.40756	0.17746	-0.001678	-0.003357
